<?xml version="1.0" encoding="UTF-8" standalone="no"?>
<svg
   xmlns:dc="http://purl.org/dc/elements/1.1/"
   xmlns:cc="http://creativecommons.org/ns#"
   xmlns:rdf="http://www.w3.org/1999/02/22-rdf-syntax-ns#"
   xmlns:svg="http://www.w3.org/2000/svg"
   xmlns="http://www.w3.org/2000/svg"
   xmlns:sodipodi="http://sodipodi.sourceforge.net/DTD/sodipodi-0.dtd"
   xmlns:inkscape="http://www.inkscape.org/namespaces/inkscape"
   width="419.9697"
   height="556.89667"
   class="bi bi-list"
   viewBox="0 0 419.96971 556.89667"
   version="1.1"
   id="svg977"
   sodipodi:docname="logo2.svg"
   inkscape:version="0.92.5 (2060ec1f9f, 2020-04-08)"
   style="fill:currentColor">
  <metadata
     id="metadata983">
    <rdf:RDF>
      <cc:Work
         rdf:about="">
        <dc:format>image/svg+xml</dc:format>
        <dc:type
           rdf:resource="http://purl.org/dc/dcmitype/StillImage" />
        <dc:title></dc:title>
      </cc:Work>
    </rdf:RDF>
  </metadata>
  <defs
     id="defs981" />
  <sodipodi:namedview
     pagecolor="#ffffff"
     bordercolor="#666666"
     borderopacity="1"
     objecttolerance="10"
     gridtolerance="10"
     guidetolerance="10"
     inkscape:pageopacity="0"
     inkscape:pageshadow="2"
     inkscape:window-width="1832"
     inkscape:window-height="930"
     id="namedview979"
     showgrid="false"
     inkscape:zoom="0.4609375"
     inkscape:cx="-441.47353"
     inkscape:cy="246.22615"
     inkscape:window-x="58"
     inkscape:window-y="27"
     inkscape:window-maximized="0"
     inkscape:current-layer="svg977"
     fit-margin-top="0"
     fit-margin-left="0"
     fit-margin-right="0"
     fit-margin-bottom="0" />
  <path
     d="m -320.13532,955.27682 a 0.5,0.5 0 0 1 0.5,-0.5 h 10 a 0.5,0.5 0 0 1 0,1 h -10 a 0.5,0.5 0 0 1 -0.5,-0.5 m 0,-4 a 0.5,0.5 0 0 1 0.5,-0.5 h 10 a 0.5,0.5 0 0 1 0,1 h -10 a 0.5,0.5 0 0 1 -0.5,-0.5 m 0,-4 a 0.5,0.5 0 0 1 0.5,-0.5 h 10 a 0.5,0.5 0 0 1 0,1 h -10 a 0.5,0.5 0 0 1 -0.5,-0.5"
     id="path975"
     style="fill:#ffffff;fill-rule:evenodd"
     inkscape:connector-curvature="0" />
  <rect
     style="opacity:1;fill:#000000;fill-opacity:1;stroke:#fcfcfc;stroke-width:1.92871273;stroke-linecap:square;stroke-linejoin:round;stroke-miterlimit:4;stroke-dasharray:none;stroke-dashoffset:0;stroke-opacity:1"
     id="rect812"
     width="485.29523"
     height="628.73071"
     x="-25.069542"
     y="-40.255981" />
  <g
     inkscape:groupmode="layer"
     id="layer1"
     inkscape:label="Layer 1"
     transform="translate(-322.63532,-440.72318)">
    <path
       d="m 394.98922,679.97919 q -1.04688,0 -1.90625,-0.875 -0.84375,-0.875 -1.35938,-2.28125 -0.5,-1.42188 -0.5,-3.03125 0,-1.53125 0.32813,-3.14063 0.34375,-1.60937 0.95312,-3.09375 0.625,-1.48437 1.45313,-2.67187 0.82812,-1.1875 1.79687,-1.85938 0.98438,-0.6875 2.03125,-0.6875 1.48438,0 2.35938,1.60938 0.875,1.60937 1.67187,4.625 0.0469,0.125 0.0781,0.125 0.0469,0 0.0937,-0.125 0.46875,-1.4375 0.89062,-2.9375 0.42188,-1.51563 0.76563,-3.04688 0.125,-0.5 0.29687,-0.75 0.17188,-0.26562 0.71875,-0.26562 0.51563,0 0.875,0.53125 0.35938,0.53125 0.54688,1.125 0.1875,0.59375 0.1875,0.89062 0,0.64063 -0.48438,2.07813 -0.48437,1.4375 -1.34375,3.3125 -0.84375,1.85937 -1.9375,3.71875 0.59375,1.75 1.39063,2.5 0.8125,0.73437 1.65625,0.73437 0.59375,0 1.09375,-0.21875 0.51562,-0.21875 0.95312,-0.54687 0.45313,-0.34375 0.70313,-0.64063 0.17187,-0.21875 0.25,-0.3125 0.0937,-0.10937 0.21875,-0.10937 0.29687,0 0.3125,0.17187 0.0312,0.17188 0.0312,0.46875 0,1.51563 -0.70313,2.5625 -0.70312,1.03125 -1.65625,1.57813 -0.95312,0.5625 -1.79687,0.5625 -0.96875,0 -2.01563,-1.3125 -1.03125,-1.32813 -1.32812,-4.03125 -1.48438,2.20312 -3.20313,3.78125 -1.71875,1.5625 -3.42187,1.5625 z m -0.42188,-1.95313 q 1.65625,0 3.14063,-1.5 1.48437,-1.51562 2.67187,-3.96875 0.25,-0.51562 0.5,-1.07812 0.26563,-0.57813 0.46875,-1.17188 -0.92187,-2.5 -1.54687,-3.53125 -0.60938,-1.04687 -1.625,-1.04687 -0.89063,0 -1.8125,0.76562 -0.90625,0.76563 -1.6875,2.0625 -0.78125,1.28125 -1.28125,2.82813 -0.48438,1.54687 -0.48438,3.125 0,1.4375 0.48438,2.48437 0.5,1.03125 1.17187,1.03125 z m 20.94184,1.90625 q -0.29688,0 -0.34375,-0.42187 -0.0312,-0.42188 -0.0312,-1.01563 0,-0.0937 0.0937,-0.84375 0.10937,-0.76562 0.10937,-1.875 0,-4.28125 -0.42187,-6.5 -0.42188,-2.23437 -1.25,-3.03125 -0.82813,-0.8125 -2.09375,-0.8125 -0.96875,0 -1.60938,0.21875 -0.64062,0.20313 -0.84375,0.20313 -0.4375,0 -0.4375,-0.5 0,-0.6875 0.53125,-1.51563 0.53125,-0.82812 1.5,-1.4375 0.98438,-0.60937 2.25,-0.60937 1.28125,0 2.04688,1.29687 0.76562,1.28125 1.14062,3.32813 0.375,2.03125 0.5,4.26562 0.14063,2.21875 0.14063,4.125 0,0.17188 0.0156,0.35938 0.0156,0.1875 0.1875,0.1875 0.125,0 0.25,-0.0312 0.14063,-0.0469 0.4375,-0.34375 0.54688,-0.51563 1.32813,-1.42188 0.78125,-0.92187 1.54687,-2.14062 0.76563,-1.23438 1.26563,-2.60938 0.51562,-1.375 0.51562,-2.78125 0,-1.39062 -0.21875,-2.09375 -0.20312,-0.70312 -0.42187,-1 -0.20313,-0.29687 -0.20313,-0.42187 0,-0.46875 0.3125,-0.67188 0.3125,-0.21875 0.60938,-0.21875 0.4375,0 0.9375,0.48438 0.51562,0.48437 0.875,1.375 0.35937,0.89062 0.35937,2.20312 0,1.95313 -0.65625,3.78125 -0.65625,1.82813 -1.71875,3.45313 -1.0625,1.625 -2.23437,3.01562 -1.15625,1.375 -2.17188,2.39063 -0.8125,0.79687 -1.35937,1.20312 -0.54688,0.40625 -0.9375,0.40625 z m 20.3869,0 q -1.04688,0 -1.84375,-0.84375 -0.78125,-0.85937 -0.78125,-2.96875 0,-1.40625 0.25,-3.14062 0.26562,-1.73438 0.57812,-3.35938 0.3125,-1.64062 0.5625,-2.78125 0.26563,-1.15625 0.26563,-1.35937 0,-0.39063 -0.17188,-0.51563 -0.17187,-0.125 -0.5,-0.17187 -0.17187,-0.0312 -0.70312,-0.0312 -0.53125,0 -1.15625,-0.0156 -0.60938,-0.0312 -0.98438,-0.0312 -0.8125,0 -1.5625,0.26563 -0.73437,0.25 -1.32812,0.84375 -0.59375,0.59375 -1.01563,1.6875 -0.0312,0.17187 -0.125,0.32812 -0.0781,0.14063 -0.20312,0.14063 -0.29688,0 -0.39063,-0.29688 -0.0781,-0.29687 -0.0781,-0.89062 0,-1.14063 0.65625,-2.23438 0.65625,-1.10937 1.85937,-1.8125 1.20313,-0.70312 2.78125,-0.70312 1.73438,0 2.92188,0.0937 1.1875,0.0781 2.28125,0.17187 1.10937,0.0781 2.51562,0.0781 0.96875,0 1.5625,-0.10938 0.59375,-0.10937 0.9375,-0.28125 0.625,-0.29687 0.73438,-0.59375 0.10937,-0.29687 0.28125,-0.29687 0.32812,0 0.46875,0.29687 0.15625,0.29688 0.15625,1.03125 0,0.57813 -0.375,1.26563 -0.375,0.67187 -0.95313,1.125 -0.57812,0.4375 -1.07812,0.4375 -0.54688,0 -1.48438,-0.0781 -0.9375,-0.0937 -1.76562,-0.1875 -0.82813,-0.10937 -1.125,-0.10937 -0.71875,0 -0.84375,0.5 -0.17188,0.9375 -0.32813,2.40625 -0.14062,1.45312 -0.23437,3.14062 -0.0781,1.67188 -0.0781,3.35938 0,0.54687 0.21875,0.9375 0.21875,0.375 0.60938,0.59375 0.40625,0.20312 0.92187,0.25 0.625,0.0469 1.5625,-0.20313 0.34375,-0.0937 0.53125,-0.1875 0.1875,-0.10937 0.23438,-0.10937 0.29687,0 0.35937,0.17187 0.0625,0.15625 0.0625,0.5 0,0.71875 -0.625,1.59375 -0.60937,0.85938 -1.5625,1.48438 -0.95312,0.60937 -2.01562,0.60937 z m 12.677,0 q -1.0625,0 -1.73437,-1.0625 -0.67188,-1.0625 -0.64063,-3.17187 l 0.125,-13.0625 q 0,-0.375 0.4375,-0.54688 0.45313,-0.17187 2.15625,-0.17187 0.71875,0 0.85938,0.1875 0.15625,0.1875 0.15625,0.53125 0,0.46875 -0.125,1.65625 -0.125,1.1875 -0.29688,2.73437 -0.17187,1.54688 -0.34375,3.1875 -0.17187,1.625 -0.29687,2.98438 -0.125,1.34375 -0.125,2.10937 0,0.8125 0.375,1.0625 0.39062,0.25 0.8125,0.25 0.67187,0 1.34375,-0.29687 0.6875,-0.29688 0.78125,-0.29688 0.29687,0 0.35937,0.17188 0.0625,0.17187 0.0625,0.51562 0,0.54688 -0.53125,1.3125 -0.53125,0.76563 -1.42187,1.32813 -0.89063,0.57812 -1.95313,0.57812 z m 20.43274,0.0469 q -1.0625,0 -2.25,-1.07813 -1.1875,-1.09375 -1.9375,-2.53125 -0.59375,-1.14062 -1.10937,-2.65625 -0.5,-1.53125 -0.71875,-2.6875 -0.0469,-0.17187 -0.14063,-0.0937 -0.0781,0.0625 -0.20312,0.26563 -0.76563,1.4375 -1.40625,3.20312 -0.625,1.76563 -1.21875,3.75 -0.17188,0.64063 -0.40625,1.20313 -0.23438,0.57812 -0.6875,0.57812 -0.21875,0 -0.60938,-0.10937 -0.375,-0.10938 -0.67187,-0.35938 -0.29688,-0.25 -0.29688,-0.64062 0,-0.67188 0.29688,-1.98438 0.29687,-1.3125 0.64062,-2.54687 0.34375,-1.1875 0.53125,-3.03125 0.1875,-1.84375 0.1875,-3.5 0,-1.34375 -0.39062,-1.76563 -0.375,-0.4375 -1.60938,-0.4375 -0.96875,0 -1.51562,0.0469 -0.54688,0.0469 -0.76563,0.0469 -0.21875,0 -0.32812,-0.10937 -0.0937,-0.10938 -0.0937,-0.40625 0,-0.67188 0.59375,-1.45313 0.59375,-0.79687 1.4375,-1.34375 0.84375,-0.54687 1.5625,-0.54687 1.57812,0 2.10937,1.17187 0.53125,1.15625 0.53125,3.35938 0,1.10937 -0.0469,1.8125 -0.0469,0.6875 -0.10938,1.28125 -0.0625,0.59375 -0.1875,1.40625 -0.0781,0.29687 0.21875,0.29687 0.0781,0 0.14063,-0.0625 0.0625,-0.0625 0.28125,-0.40625 1.6875,-2.625 3.40625,-4.60937 1.71875,-2 3.21875,-3.125 1.51562,-1.125 2.5625,-1.125 1.0625,0 1.5,0.45312 0.45312,0.4375 0.53125,1.04688 0.0937,0.60937 0.0937,1.125 0,0.25 -0.125,0.46875 -0.125,0.20312 -0.39063,0.20312 -0.20312,0 -0.25,-0.0312 -0.0469,-0.0469 -0.28125,-0.0781 -0.21875,-0.0469 -1.03125,-0.0469 -1.82812,0 -3.29687,1.125 -1.45313,1.10938 -2.8125,3.23438 -0.25,0.42187 -0.15625,0.71875 0.5,1.65625 1.26562,3.1875 0.76563,1.51562 1.95313,2.54687 1.1875,1.01563 2.96875,1.14063 0.96875,0.0312 1.64062,-0.35938 0.6875,-0.40625 1.07813,-0.82812 0.40625,-0.42188 0.5,-0.42188 0.20312,0 0.26562,0.125 0.0781,0.125 0.0781,0.25 0,1.3125 -0.75,2.29688 -0.73438,0.96875 -1.78125,1.5 -1.03125,0.53125 -2.01563,0.53125 z m 10.97943,-0.0469 q -1.1875,0 -2.26562,-0.53125 -1.07813,-0.53125 -1.76563,-1.4375 -0.67187,-0.92187 -0.67187,-2.0625 0,-1.1875 0.42187,-2.03125 0.42188,-0.84375 0.90625,-1.375 0.5,-0.53125 0.70313,-0.65625 0.64062,-0.51562 0.0937,-0.76562 -0.85938,-0.42188 -1.5,-0.98438 -0.625,-0.57812 -0.625,-2.10937 0,-1.65625 1.0625,-3.04688 1.0625,-1.40625 2.79687,-2.23437 1.73438,-0.82813 3.73438,-0.82813 0.67187,0 1.26562,0.39063 0.59375,0.375 0.59375,0.92187 0,0.5625 -0.625,0.98438 -0.60937,0.42187 -1.35937,0.42187 -2.46875,0 -3.90625,1.04688 -1.4375,1.03125 -1.4375,3.01562 0,0.6875 0.39062,1.10938 0.40625,0.42187 0.96875,0.42187 0.32813,0 0.85938,-0.29687 0.53125,-0.29688 1.14062,-0.65625 0.625,-0.35938 1.23438,-0.65625 0.60937,-0.29688 1.04687,-0.29688 0.67188,0 1.21875,0.40625 0.5625,0.39063 0.5625,0.85938 0,0.89062 -0.8125,1.53125 -0.8125,0.64062 -1.53125,0.64062 -0.375,0 -0.875,0.0156 -0.48437,0.0156 -1.0625,0.125 -0.5625,0.10937 -1.15625,0.32812 -1.0625,0.375 -1.73437,1.1875 -0.67188,0.79688 -0.67188,1.73438 0,0.67187 0.84375,1.35937 0.84375,0.67188 2.07813,0.67188 0.96875,0 2.03125,-0.32813 1.0625,-0.34375 1.95312,-0.82812 0.89063,-0.5 1.35938,-0.92188 0.375,-0.29687 0.60937,-0.48437 0.23438,-0.1875 0.28125,-0.1875 0.42188,0 0.42188,0.71875 0,1.01562 -0.5625,1.89062 -0.54688,0.85938 -1.48438,1.51563 -0.92187,0.65625 -2.09375,1.03125 -1.15625,0.39062 -2.4375,0.39062 z m 12.67407,0 q -1.0625,0 -1.73437,-1.0625 -0.67188,-1.0625 -0.64063,-3.17187 l 0.125,-13.0625 q 0,-0.375 0.4375,-0.54688 0.45313,-0.17187 2.15625,-0.17187 0.71875,0 0.85938,0.1875 0.15625,0.1875 0.15625,0.53125 0,0.46875 -0.125,1.65625 -0.125,1.1875 -0.29688,2.73437 -0.17187,1.54688 -0.34375,3.1875 -0.17187,1.625 -0.29687,2.98438 -0.125,1.34375 -0.125,2.10937 0,0.8125 0.375,1.0625 0.39062,0.25 0.8125,0.25 0.67187,0 1.34375,-0.29687 0.6875,-0.29688 0.78125,-0.29688 0.29687,0 0.35937,0.17188 0.0625,0.17187 0.0625,0.51562 0,0.54688 -0.53125,1.3125 -0.53125,0.76563 -1.42187,1.32813 -0.89063,0.57812 -1.95313,0.57812 z m -0.71875,-20.5625 q -0.29687,0 -0.29687,-0.125 0,-0.125 0,-0.42187 0,-0.29688 0.23437,-1.25 0.23438,-0.95313 0.5625,-2.15625 0.34375,-1.21875 0.70313,-2.29688 0.35937,-1.07812 0.57812,-1.625 0.17188,-0.39062 0.5,-0.57812 0.34375,-0.1875 0.64063,-0.1875 0.59375,0 1.07812,0.6875 0.5,0.67187 0.40625,1.17187 0,0.17188 -0.34375,0.92188 -0.32812,0.73437 -0.82812,1.75 -0.48438,1.01562 -1.0625,1.9375 -0.5625,0.90625 -1.03125,1.375 -0.25,0.25 -0.54688,0.53125 -0.29687,0.26562 -0.59375,0.26562 z m 12.16706,32.04688 q -0.67188,0 -1.07813,-0.28125 -0.40625,-0.26563 -0.65625,-0.75 -0.25,-0.48438 -0.51562,-1.125 -0.125,-0.39063 -0.25,-1.51563 -0.125,-1.10937 -0.1875,-2.625 -0.0625,-1.5 -0.10938,-3.04687 -0.0469,-1.54688 -0.0469,-2.73438 0,-1.48437 0,-3.4375 0,-1.95312 0,-4.04687 0,-2.09375 -0.0156,-4 -0.0156,-1.90625 -0.0156,-3.32813 0,-1.42187 0,-1.96875 0,-0.46875 0.21875,-0.60937 0.23437,-0.15625 0.92187,-0.15625 0.9375,0 1.8125,0.45312 0.89063,0.4375 0.89063,0.73438 0,0.67187 -0.1875,2.15625 -0.1875,1.48437 -0.46875,3.25 -0.26563,1.75 -0.46875,3.23437 -0.1875,1.48438 -0.1875,2.125 0,0.54688 0.25,1.34375 0.26562,0.78125 0.8125,1.39063 0.54687,0.60937 1.48437,0.60937 1.65625,0 2.6875,-0.90625 1.04688,-0.90625 2.3125,-3.28125 0.34375,-1.10937 0.53125,-2.92187 0.1875,-1.82813 0.29688,-3.85938 0.10937,-2.04687 0.10937,-3.73437 0,-0.34375 0.17188,-0.48438 0.17187,-0.15625 0.71875,-0.15625 0.67187,0 1.3125,0.29688 0.64062,0.29687 1.07812,0.6875 0.45313,0.375 0.45313,0.625 0,1.3125 -0.59375,3.75 -0.59375,2.4375 -1.4375,5.35937 0,0.76563 0.26562,1.64063 0.28125,0.875 0.875,1.46875 0.59375,0.59375 1.51563,0.59375 0.8125,0 1.4375,-0.35938 0.64062,-0.375 1.0625,-0.73437 0.4375,-0.35938 0.59375,-0.35938 0.17187,0 0.3125,0.10938 0.15625,0.10937 0.15625,0.28125 0,1.5625 -0.59375,2.67187 -0.59375,1.09375 -1.46875,1.64063 -0.85938,0.5625 -1.79688,0.5625 -0.96875,0 -1.79687,-1.0625 -0.82813,-1.0625 -1.15625,-2.92188 -0.0469,-0.39062 -0.0937,-0.8125 -0.0469,-0.42187 -0.0781,-0.84375 h -0.0937 q -0.125,0.25 -0.67187,1.14063 -0.54688,0.89062 -1.35938,1.9375 -0.8125,1.03125 -1.70312,1.79687 -0.875,0.76563 -1.6875,0.76563 -0.8125,0 -1.46875,-0.26563 -0.65625,-0.25 -1.17188,-0.64062 -0.5,-0.40625 -0.875,-0.84375 -0.54687,-0.59375 -0.875,-1.04688 -0.3125,-0.46875 -0.40625,-0.46875 -0.29687,0 -0.29687,1.4375 0,0.46875 0.0156,1.32813 0.0312,0.875 0.0469,1.90625 0.0312,1.04687 0.0625,1.96875 0.0469,0.9375 0.0469,1.53125 0.0469,1.35937 0.54688,2.25 0.51562,0.89062 1.1875,1.4375 0.6875,0.5625 1.1875,0.89062 0.51562,0.34375 0.51562,0.64063 0,0.42187 -0.35937,0.71875 -0.35938,0.29687 -0.82813,0.4375 -0.46875,0.15625 -0.89062,0.15625 z m 22.88879,-11.48438 q -1.1875,0 -2.26562,-0.53125 -1.07813,-0.53125 -1.76563,-1.4375 -0.67187,-0.92187 -0.67187,-2.0625 0,-1.1875 0.42187,-2.03125 0.42188,-0.84375 0.90625,-1.375 0.5,-0.53125 0.70313,-0.65625 0.64062,-0.51562 0.0937,-0.76562 -0.85938,-0.42188 -1.5,-0.98438 -0.625,-0.57812 -0.625,-2.10937 0,-1.65625 1.0625,-3.04688 1.0625,-1.40625 2.79687,-2.23437 1.73438,-0.82813 3.73438,-0.82813 0.67187,0 1.26562,0.39063 0.59375,0.375 0.59375,0.92187 0,0.5625 -0.625,0.98438 -0.60937,0.42187 -1.35937,0.42187 -2.46875,0 -3.90625,1.04688 -1.4375,1.03125 -1.4375,3.01562 0,0.6875 0.39062,1.10938 0.40625,0.42187 0.96875,0.42187 0.32813,0 0.85938,-0.29687 0.53125,-0.29688 1.14062,-0.65625 0.625,-0.35938 1.23438,-0.65625 0.60937,-0.29688 1.04687,-0.29688 0.67188,0 1.21875,0.40625 0.5625,0.39063 0.5625,0.85938 0,0.89062 -0.8125,1.53125 -0.8125,0.64062 -1.53125,0.64062 -0.375,0 -0.875,0.0156 -0.48437,0.0156 -1.0625,0.125 -0.5625,0.10937 -1.15625,0.32812 -1.0625,0.375 -1.73437,1.1875 -0.67188,0.79688 -0.67188,1.73438 0,0.67187 0.84375,1.35937 0.84375,0.67188 2.07813,0.67188 0.96875,0 2.03125,-0.32813 1.0625,-0.34375 1.95312,-0.82812 0.89063,-0.5 1.35938,-0.92188 0.375,-0.29687 0.60937,-0.48437 0.23438,-0.1875 0.28125,-0.1875 0.42188,0 0.42188,0.71875 0,1.01562 -0.5625,1.89062 -0.54688,0.85938 -1.48438,1.51563 -0.92187,0.65625 -2.09375,1.03125 -1.15625,0.39062 -2.4375,0.39062 z m 14.15845,0 q -0.29688,0 -0.34375,-0.42187 -0.0312,-0.42188 -0.0312,-1.01563 0,-0.0937 0.0937,-0.84375 0.10937,-0.76562 0.10937,-1.875 0,-4.28125 -0.42187,-6.5 -0.42188,-2.23437 -1.25,-3.03125 -0.82813,-0.8125 -2.09375,-0.8125 -0.96875,0 -1.60938,0.21875 -0.64062,0.20313 -0.84375,0.20313 -0.4375,0 -0.4375,-0.5 0,-0.6875 0.53125,-1.51563 0.53125,-0.82812 1.5,-1.4375 0.98438,-0.60937 2.25,-0.60937 1.28125,0 2.04688,1.29687 0.76562,1.28125 1.14062,3.32813 0.375,2.03125 0.5,4.26562 0.14063,2.21875 0.14063,4.125 0,0.17188 0.0156,0.35938 0.0156,0.1875 0.1875,0.1875 0.125,0 0.25,-0.0312 0.14063,-0.0469 0.4375,-0.34375 0.54688,-0.51563 1.32813,-1.42188 0.78125,-0.92187 1.54687,-2.14062 0.76563,-1.23438 1.26563,-2.60938 0.51562,-1.375 0.51562,-2.78125 0,-1.39062 -0.21875,-2.09375 -0.20312,-0.70312 -0.42187,-1 -0.20313,-0.29687 -0.20313,-0.42187 0,-0.46875 0.3125,-0.67188 0.3125,-0.21875 0.60938,-0.21875 0.4375,0 0.9375,0.48438 0.51562,0.48437 0.875,1.375 0.35937,0.89062 0.35937,2.20312 0,1.95313 -0.65625,3.78125 -0.65625,1.82813 -1.71875,3.45313 -1.0625,1.625 -2.23437,3.01562 -1.15625,1.375 -2.17188,2.39063 -0.8125,0.79687 -1.35937,1.20312 -0.54688,0.40625 -0.9375,0.40625 z m 15.80878,0.0469 q -1.04688,0 -1.90625,-0.875 -0.84375,-0.875 -1.35938,-2.28125 -0.5,-1.42188 -0.5,-3.03125 0,-1.53125 0.32813,-3.14063 0.34375,-1.60937 0.95312,-3.09375 0.625,-1.48437 1.45313,-2.67187 0.82812,-1.1875 1.79687,-1.85938 0.98438,-0.6875 2.03125,-0.6875 1.48438,0 2.35938,1.60938 0.875,1.60937 1.67187,4.625 0.0469,0.125 0.0781,0.125 0.0469,0 0.0937,-0.125 0.46875,-1.4375 0.89062,-2.9375 0.42188,-1.51563 0.76563,-3.04688 0.125,-0.5 0.29687,-0.75 0.17188,-0.26562 0.71875,-0.26562 0.51563,0 0.875,0.53125 0.35938,0.53125 0.54688,1.125 0.1875,0.59375 0.1875,0.89062 0,0.64063 -0.48438,2.07813 -0.48437,1.4375 -1.34375,3.3125 -0.84375,1.85937 -1.9375,3.71875 0.59375,1.75 1.39063,2.5 0.8125,0.73437 1.65625,0.73437 0.59375,0 1.09375,-0.21875 0.51562,-0.21875 0.95312,-0.54687 0.45313,-0.34375 0.70313,-0.64063 0.17187,-0.21875 0.25,-0.3125 0.0937,-0.10937 0.21875,-0.10937 0.29687,0 0.3125,0.17187 0.0312,0.17188 0.0312,0.46875 0,1.51563 -0.70313,2.5625 -0.70312,1.03125 -1.65625,1.57813 -0.95312,0.5625 -1.79687,0.5625 -0.96875,0 -2.01563,-1.3125 -1.03125,-1.32813 -1.32812,-4.03125 -1.48438,2.20312 -3.20313,3.78125 -1.71875,1.5625 -3.42187,1.5625 z m -0.42188,-1.95313 q 1.65625,0 3.14063,-1.5 1.48437,-1.51562 2.67187,-3.96875 0.25,-0.51562 0.5,-1.07812 0.26563,-0.57813 0.46875,-1.17188 -0.92187,-2.5 -1.54687,-3.53125 -0.60938,-1.04687 -1.625,-1.04687 -0.89063,0 -1.8125,0.76562 -0.90625,0.76563 -1.6875,2.0625 -0.78125,1.28125 -1.28125,2.82813 -0.48438,1.54687 -0.48438,3.125 0,1.4375 0.48438,2.48437 0.5,1.03125 1.17187,1.03125 z"
       id="path910"
       inkscape:connector-curvature="0"
       style="fill:#eeeeee;fill-rule:nonzero;stroke:none;stroke-linecap:square;stroke-miterlimit:10" />
    <path
       d="m 597.26169,747.95838 q -2,0 -3.625,-0.92188 -1.60938,-0.9375 -2.5625,-2.5625 -0.95313,-1.64062 -0.95313,-3.71875 0,-1.51562 0.59375,-2.9375 0.59375,-1.4375 1.67188,-2.625 1.07812,-1.1875 2.5,-1.875 1.4375,-0.70312 3.09375,-0.70312 2.07812,0 3.73437,1 1.67188,1 2.65625,2.64062 1,1.625 1,3.5625 0,2.07813 -0.92187,3.95313 -0.90625,1.85937 -2.70313,3.03125 -1.79687,1.15625 -4.48437,1.15625 z m 0.75,-1.07813 q 1.21875,0 2.1875,-0.45312 0.96875,-0.46875 1.51562,-1.51563 0.42188,-0.82812 0.5625,-2 0.15625,-1.1875 0.15625,-2.23437 0,-1.71875 -0.64062,-3.3125 -0.625,-1.59375 -1.75,-2.60938 -1.125,-1.03125 -2.67188,-1.03125 -0.96875,0 -1.75,0.3125 -0.76562,0.29688 -1.40625,1.125 -0.71875,0.89063 -0.9375,2.1875 -0.20312,1.28125 -0.20312,2.57813 0,1.76562 0.64062,3.35937 0.64063,1.59375 1.75,2.59375 1.10938,1 2.54688,1 z m 17.89099,1.07813 q -0.78125,0 -1.57812,-0.14063 -0.78125,-0.14062 -1.5,-0.32812 -0.78125,-0.20313 -1.375,-0.375 -0.59375,-0.1875 -0.78125,-0.1875 -0.20313,0 -0.40625,0.14062 -0.20313,0.14063 -0.375,0.3125 -0.1875,0.1875 -0.32813,0.1875 -0.14062,0 -0.32812,-0.125 -0.17188,-0.125 -0.17188,-0.3125 0,-0.3125 0.125,-1.09375 0.125,-0.79687 0.125,-1.48437 V 727.1615 q 0,-0.9375 -0.46875,-1.60937 -0.46875,-0.6875 -1.17187,-1.01563 -0.15625,-0.0625 -0.3125,-0.1875 -0.15625,-0.125 -0.15625,-0.34375 0,-0.17187 0.14062,-0.25 0.14063,-0.0781 0.28125,-0.10937 0.46875,-0.10938 1.26563,-0.39063 0.8125,-0.28125 1.53125,-0.5625 0.71875,-0.29687 0.96875,-0.40625 0.21875,-0.10937 0.32812,-0.10937 0.0625,0 0.14063,0.0781 0.0781,0.0625 0.0781,0.17188 0,0.14062 -0.0625,1.20312 -0.0469,1.0625 -0.0469,2.5625 v 7.35938 q 0,0.67187 0.0625,0.90625 0.0781,0.23437 0.25,0.26562 1.125,-0.92187 2.59375,-1.51562 1.46875,-0.59375 2.64062,-0.59375 1.84375,0 3.28125,0.9375 1.45313,0.92187 2.3125,2.51562 0.875,1.59375 0.875,3.60938 0,2.4375 -1.01562,4.32812 -1,1.875 -2.78125,2.92188 -1.76563,1.03125 -4.14063,1.03125 z m 0.82813,-1.10938 q 1.35937,0 2.34375,-0.84375 1,-0.84375 1.53125,-2.29687 0.53125,-1.45313 0.53125,-3.25 0,-1.39063 -0.51563,-2.85938 -0.51562,-1.46875 -1.60937,-2.46875 -1.09375,-1.01562 -2.8125,-1.01562 -1.4375,0 -2.51563,0.46875 -1.07812,0.46875 -1.85937,1.1875 v 6.95312 q 0,1.25 0.6875,2.1875 0.70312,0.9375 1.82812,1.4375 1.14063,0.5 2.39063,0.5 z m 8.3894,10.90625 q -0.17188,0 -0.45313,-0.0937 -0.29687,-0.0937 -0.29687,-0.26562 0,-0.21875 0.1875,-0.40625 0.17187,-0.17188 0.20312,-0.20313 0.65625,-0.1875 1.26563,-0.6875 0.60937,-0.5 1.10937,-1.57812 0.39063,-0.82813 0.625,-2.0625 0.23438,-1.23438 0.34375,-2.59375 0.10938,-1.35938 0.14063,-2.65625 0.0312,-1.29688 0.0312,-2.21875 v -7.53125 q 0,-0.96875 -0.35938,-1.70313 -0.35937,-0.73437 -1.28125,-0.92187 -0.14062,-0.0312 -0.21875,-0.17188 -0.0781,-0.14062 -0.0781,-0.29687 0,-0.35938 0.25,-0.42188 1.375,-0.32812 2.29687,-0.89062 0.9375,-0.57813 1.4375,-0.90625 0.1875,-0.10938 0.3125,-0.17188 0.125,-0.0781 0.15625,-0.0781 0.25,0 0.25,0.17187 -0.10937,1.125 -0.1875,2.71875 -0.0625,1.59375 -0.0625,2.8125 v 6.59375 q 0,1.10938 -0.0625,2.60938 -0.0469,1.48437 -0.26562,3.07812 -0.21875,1.59375 -0.75,3.03125 -0.42188,1.21875 -1.25,2.32813 -0.82813,1.10937 -1.73438,1.8125 -0.89062,0.70312 -1.60937,0.70312 z m 4.125,-28.79687 q -0.75,0 -1.26563,-0.51563 -0.51562,-0.53125 -0.51562,-1.28125 0,-0.78125 0.51562,-1.29687 0.51563,-0.53125 1.26563,-0.53125 0.79687,0 1.3125,0.53125 0.53125,0.51562 0.53125,1.29687 0,0.75 -0.53125,1.28125 -0.51563,0.51563 -1.3125,0.51563 z m 11.58862,19.03125 q -1.96875,0 -3.45312,-0.96875 -1.46875,-0.96875 -2.29688,-2.73438 -0.8125,-1.78125 -0.8125,-4.10937 0,-2.07813 0.9375,-3.78125 0.95313,-1.70313 2.53125,-2.73438 1.57813,-1.04687 3.45313,-1.04687 1.4375,0 2.54687,0.57812 1.10938,0.5625 1.73438,1.59375 0.625,1.01563 0.625,2.34375 0,1.10938 -1.07813,1.10938 h -7.5625 q -0.5,0 -0.70312,0.28125 -0.1875,0.26562 -0.1875,1.04687 0,1.71875 0.75,3.14063 0.75,1.42187 2,2.26562 1.26562,0.82813 2.76562,0.82813 1.07813,0 1.95313,-0.40625 0.875,-0.40625 1.5625,-1.20313 0.14062,-0.17187 0.20312,-0.21875 0.0781,-0.0625 0.1875,-0.0625 0.29688,0 0.29688,0.35938 0,0.67187 -0.65625,1.5 -0.53125,0.6875 -1.28125,1.1875 -0.75,0.5 -1.65625,0.76562 -0.89063,0.26563 -1.85938,0.26563 z m -3.29687,-10.85938 h 3.26562 q 0.85938,0 1.46875,-0.0312 0.60938,-0.0469 1.17188,-0.14062 0.1875,-0.0469 0.23437,-0.23438 0.0625,-0.20312 0.0625,-0.5625 0,-1.03125 -0.92187,-1.76562 -0.90625,-0.75 -2.17188,-0.75 -0.8125,0 -1.64062,0.48437 -0.82813,0.48438 -1.375,1.20313 -0.53125,0.71875 -0.53125,1.4375 0,0.35937 0.4375,0.35937 z m 16.92334,10.85938 q -1.79688,0 -3.25,-0.90625 -1.45313,-0.92188 -2.29688,-2.51563 -0.84375,-1.59375 -0.84375,-3.5625 0,-2.32812 1.01563,-4.23437 1.03125,-1.90625 2.75,-3.03125 1.71875,-1.125 3.8125,-1.125 2.32812,0 4.07812,1.25 0.4375,0.32812 0.4375,0.6875 0,0.28125 -0.25,0.64062 -0.25,0.35938 -0.60937,0.59375 -0.35938,0.23438 -0.6875,0.23438 -0.17188,0 -0.35938,-0.125 -0.17187,-0.125 -0.39062,-0.26563 -0.79688,-0.60937 -1.76563,-1.14062 -0.96875,-0.54688 -1.60937,-0.54688 -1.75,0 -2.84375,1.64063 -1.09375,1.625 -1.09375,4.26562 0,1.6875 0.73437,3.0625 0.73438,1.35938 1.96875,2.15625 1.23438,0.78125 2.75,0.78125 1.03125,0 1.78125,-0.34375 0.75,-0.34375 1.625,-1.20312 0.0625,-0.0781 0.17188,-0.125 0.10937,-0.0469 0.17187,-0.0469 0.40625,0 0.40625,0.5 0,0.20313 -0.125,0.48438 -0.125,0.26562 -0.42187,0.625 -0.5625,0.71875 -1.35938,1.23437 -0.78125,0.51563 -1.73437,0.76563 -0.95313,0.25 -2.0625,0.25 z m 13.73535,-0.0312 q -1.76562,0 -2.75,-1.07813 -0.98437,-1.07812 -0.98437,-3.1875 v -8.3125 q 0,-0.29687 -0.21875,-0.42187 -0.20313,-0.125 -0.92188,-0.125 h -0.21875 q -0.1875,0 -0.3125,-0.23438 -0.125,-0.23437 -0.125,-0.48437 0,-0.0625 0.10938,-0.20313 0.10937,-0.15625 0.14062,-0.1875 0.71875,-0.5 1.3125,-1 0.59375,-0.5 1.07813,-0.98437 0.48437,-0.48438 0.8125,-0.89063 0.17187,-0.17187 0.29687,-0.29687 0.125,-0.125 0.3125,-0.125 0.17188,0 0.32813,0.0781 0.17187,0.0625 0.125,0.3125 l -0.17188,1.60938 q -0.0312,0.40625 0.17188,0.54687 0.21875,0.14063 0.6875,0.14063 h 4.09375 q 0.14062,0 0.25,0.23437 0.10937,0.23438 0.10937,0.54688 0,0.32812 -0.10937,0.64062 -0.10938,0.29688 -0.25,0.29688 h -3.54688 q -0.90625,0 -1.17187,0.15625 -0.26563,0.14062 -0.26563,0.84375 v 7.07812 q 0,1.42188 0.60938,2.25 0.60937,0.82813 1.75,0.82813 1.04687,0 1.60937,-0.15625 0.57813,-0.17188 1.04688,-0.48438 0.0781,-0.0781 0.14062,-0.0781 0.14063,0 0.1875,0.17187 0.0625,0.15625 0.0625,0.32813 0,0.1875 -0.59375,0.71875 -0.57812,0.53125 -1.53125,1 -0.95312,0.46875 -2.0625,0.46875 z m 9.63489,0 q -1.10938,0 -2.07813,-0.34375 -0.96875,-0.32813 -1.64062,-0.9375 -0.1875,-0.40625 -0.28125,-1.32813 -0.0781,-0.9375 -0.10938,-1.54687 0,-0.32813 0.45313,-0.32813 0.15625,0 0.28125,0.0625 0.125,0.0469 0.15625,0.1875 0.46875,1.76563 1.48437,2.51563 1.03125,0.75 2.0625,0.75 1.04688,0 1.78125,-0.6875 0.73438,-0.70313 0.73438,-1.75 0,-0.96875 -0.65625,-1.65625 -0.64063,-0.70313 -2.25,-1.71875 -1.21875,-0.75 -1.98438,-1.42188 -0.75,-0.6875 -1.09375,-1.40625 -0.32812,-0.71875 -0.32812,-1.60937 0,-1.15625 0.53125,-2.07813 0.54687,-0.9375 1.60937,-1.48437 1.07813,-0.5625 2.70313,-0.5625 1.07812,0 1.78125,0.21875 0.71875,0.20312 1.07812,0.45312 0.29688,0.40625 0.48438,1.25 0.20312,0.84375 0.20312,1.59375 0,0.25 -0.35937,0.25 -0.21875,0 -0.42188,-0.0937 -0.1875,-0.0937 -0.26562,-0.23437 -0.45313,-1.1875 -1.15625,-1.8125 -0.70313,-0.625 -1.75,-0.625 -0.89063,0 -1.59375,0.54687 -0.6875,0.53125 -0.6875,1.57813 0,0.8125 0.51562,1.46875 0.51563,0.64062 1.95313,1.46875 2.07812,1.17187 3.09375,2.20312 1.03125,1.01563 1.03125,2.70313 0,1.9375 -1.46875,3.15625 -1.46875,1.21875 -3.8125,1.21875 z"
       id="path914"
       inkscape:connector-curvature="0"
       style="fill:#eeeeee;fill-rule:nonzero;stroke:none;stroke-linecap:square;stroke-miterlimit:10" />
    <path
       d="m 701.28836,444.71666 -246.89764,548.126"
       id="path918"
       inkscape:connector-curvature="0"
       style="fill:none;fill-rule:evenodd;stroke:#eeeeee;stroke-width:2;stroke-linecap:butt;stroke-linejoin:round;stroke-miterlimit:10" />
  </g>
</svg>
